<svg width="828" height="828" viewBox="0 0 828 828" fill="none" xmlns="http://www.w3.org/2000/svg">
<g clip-path="url(#clip0_2494_13039)">
<mask id="mask0_2494_13039" style="mask-type:luminance" maskUnits="userSpaceOnUse" x="0" y="0" width="828" height="828">
<path d="M648 0H180C80.5887 0 0 80.5887 0 180V648C0 747.411 80.5887 828 180 828H648C747.411 828 828 747.411 828 648V180C828 80.5887 747.411 0 648 0Z" fill="white"/>
</mask>
<g mask="url(#mask0_2494_13039)">
<g filter="url(#filter0_d_2494_13039)">
<path d="M648 0H180C80.5887 0 0 80.5887 0 180V648C0 747.411 80.5887 828 180 828H648C747.411 828 828 747.411 828 648V180C828 80.5887 747.411 0 648 0Z" fill="#3B0D69"/>
</g>
<g filter="url(#filter1_f_2494_13039)">
<path d="M420.5 1090C670.409 1090 873 962.849 873 806C873 649.151 670.409 522 420.5 522C170.591 522 -32 649.151 -32 806C-32 962.849 170.591 1090 420.5 1090Z" fill="#5E13A5" fill-opacity="0.3"/>
</g>
<g filter="url(#filter2_f_2494_13039)">
<path d="M100 256C212.666 256 304 155.488 304 31.5C304 -92.4879 212.666 -193 100 -193C-12.6661 -193 -104 -92.4879 -104 31.5C-104 155.488 -12.6661 256 100 256Z" fill="#5E13A5" fill-opacity="0.3"/>
</g>
<path d="M317.407 156C402.391 156 471.535 223.166 471.535 305.726C471.535 309.659 471.376 313.557 471.067 317.414L489.012 261.716H557.991L482.655 495.595H598.162V323.739H664V672H598.162V559.541H393.062L450.61 380.911C445.893 388.757 440.463 396.154 434.407 403.015L434.489 403.079L278.564 584.233H192.748L304.116 454.843C240.323 449.525 187.521 406.315 169.728 348.536C169.728 348.536 164 332.393 164 305.718C164 279.072 169.715 262.936 169.728 262.9C188.741 201.149 247.735 156 317.407 156ZM317.407 219.954C268.72 219.954 229.11 258.431 229.109 305.726C229.109 353.012 268.719 391.489 317.407 391.489C366.095 391.489 405.706 353.02 405.706 305.726C405.706 258.431 366.095 219.954 317.407 219.954Z" fill="white"/>
</g>
</g>
<defs>
<filter id="filter0_d_2494_13039" x="-18" y="-4" width="864" height="864" filterUnits="userSpaceOnUse" color-interpolation-filters="sRGB">
<feFlood flood-opacity="0" result="BackgroundImageFix"/>
<feColorMatrix in="SourceAlpha" type="matrix" values="0 0 0 0 0 0 0 0 0 0 0 0 0 0 0 0 0 0 127 0" result="hardAlpha"/>
<feOffset dy="14"/>
<feGaussianBlur stdDeviation="9"/>
<feComposite in2="hardAlpha" operator="out"/>
<feColorMatrix type="matrix" values="0 0 0 0 0 0 0 0 0 0 0 0 0 0 0 0 0 0 0.25 0"/>
<feBlend mode="normal" in2="BackgroundImageFix" result="effect1_dropShadow_2494_13039"/>
<feBlend mode="normal" in="SourceGraphic" in2="effect1_dropShadow_2494_13039" result="shape"/>
</filter>
<filter id="filter1_f_2494_13039" x="-204" y="350" width="1249" height="912" filterUnits="userSpaceOnUse" color-interpolation-filters="sRGB">
<feFlood flood-opacity="0" result="BackgroundImageFix"/>
<feBlend mode="normal" in="SourceGraphic" in2="BackgroundImageFix" result="shape"/>
<feGaussianBlur stdDeviation="86" result="effect1_foregroundBlur_2494_13039"/>
</filter>
<filter id="filter2_f_2494_13039" x="-276" y="-365" width="752" height="793" filterUnits="userSpaceOnUse" color-interpolation-filters="sRGB">
<feFlood flood-opacity="0" result="BackgroundImageFix"/>
<feBlend mode="normal" in="SourceGraphic" in2="BackgroundImageFix" result="shape"/>
<feGaussianBlur stdDeviation="86" result="effect1_foregroundBlur_2494_13039"/>
</filter>
<clipPath id="clip0_2494_13039">
<rect width="828" height="828" fill="white"/>
</clipPath>
</defs>
</svg>
