<svg width="40" height="40" viewBox="0 0 40 40" fill="none" xmlns="http://www.w3.org/2000/svg">
<rect width="40" height="40" rx="10" fill="#1E1E1E"/>
<path fill-rule="evenodd" clip-rule="evenodd" d="M15.7495 8C19.4885 8 22.5306 11.124 22.5306 14.964C22.5306 15.1491 22.5235 15.3326 22.5096 15.5141L23.3011 12.917H26.3359L23.0214 23.7951H28.1033V15.8018H31V23.2933V27.2763V31.9999H28.1033V26.7693H19.0796L21.6132 18.4554C21.4049 18.8224 21.1649 19.1683 20.8971 19.489L20.9007 19.492L14.0405 27.9178H10.2648L15.1647 21.8996C12.358 21.6523 10.0348 19.6425 9.25199 16.9551C9.25199 16.9551 9 16.2043 9 14.9636C9 13.7229 9.25199 12.9721 9.25199 12.9721C10.0885 10.0999 12.6841 8 15.7495 8ZM11.8646 14.964C11.8646 12.7642 13.6073 10.9746 15.7495 10.9746C17.8916 10.9746 19.6343 12.7642 19.6343 14.964C19.6343 17.1637 17.8916 18.953 15.7495 18.953C13.6073 18.953 11.8646 17.1634 11.8646 14.964Z" fill="white"/>
</svg>
