<svg width="136" height="40" viewBox="0 0 136 40" fill="none" xmlns="http://www.w3.org/2000/svg">
<path d="M51.056 30V10.96H54.276V30H51.056ZM44.672 13.34V10.4H60.66V13.34H44.672ZM65.1993 30.28C63.9859 30.28 62.8846 29.972 61.8953 29.356C60.9246 28.74 60.1499 27.9093 59.5713 26.864C59.0113 25.8 58.7313 24.6147 58.7313 23.308C58.7313 21.9827 59.0113 20.7973 59.5713 19.752C60.1499 18.688 60.9246 17.848 61.8953 17.232C62.8846 16.5973 63.9859 16.28 65.1993 16.28C66.2259 16.28 67.1313 16.504 67.9153 16.952C68.7179 17.3813 69.3526 17.9787 69.8193 18.744C70.2859 19.5093 70.5193 20.3773 70.5193 21.348V25.212C70.5193 26.1827 70.2859 27.0507 69.8193 27.816C69.3713 28.5813 68.7459 29.188 67.9433 29.636C67.1406 30.0653 66.2259 30.28 65.1993 30.28ZM65.7033 27.368C66.8419 27.368 67.7566 26.9853 68.4473 26.22C69.1566 25.4547 69.5113 24.4747 69.5113 23.28C69.5113 22.4773 69.3526 21.768 69.0353 21.152C68.7179 20.536 68.2699 20.06 67.6913 19.724C67.1313 19.3693 66.4686 19.192 65.7033 19.192C64.9566 19.192 64.2939 19.3693 63.7153 19.724C63.1553 20.06 62.7073 20.536 62.3713 21.152C62.0539 21.768 61.8953 22.4773 61.8953 23.28C61.8953 24.0827 62.0539 24.792 62.3713 25.408C62.7073 26.024 63.1553 26.5093 63.7153 26.864C64.2939 27.2 64.9566 27.368 65.7033 27.368ZM69.3153 30V26.388L69.8473 23.112L69.3153 19.864V16.56H72.3953V30H69.3153ZM75.8135 30V9.84H78.8935V30H75.8135ZM88.5653 30.28C87.2213 30.28 86.0079 29.9813 84.9253 29.384C83.8613 28.768 83.0119 27.928 82.3773 26.864C81.7613 25.8 81.4533 24.6053 81.4533 23.28C81.4533 21.9547 81.7613 20.7693 82.3773 19.724C82.9933 18.66 83.8239 17.82 84.8693 17.204C85.9333 16.588 87.1093 16.28 88.3973 16.28C89.6479 16.28 90.7493 16.5693 91.7013 17.148C92.6719 17.7267 93.4279 18.52 93.9693 19.528C94.5293 20.536 94.8093 21.684 94.8093 22.972C94.8093 23.196 94.7906 23.4293 94.7533 23.672C94.7346 23.896 94.6973 24.148 94.6413 24.428H83.6093V21.908H93.0453L91.8973 22.916C91.8599 22.0947 91.7013 21.404 91.4213 20.844C91.1413 20.284 90.7399 19.8547 90.2173 19.556C89.7133 19.2573 89.0879 19.108 88.3413 19.108C87.5573 19.108 86.8759 19.276 86.2973 19.612C85.7186 19.948 85.2706 20.424 84.9533 21.04C84.6359 21.6373 84.4773 22.356 84.4773 23.196C84.4773 24.036 84.6453 24.7733 84.9813 25.408C85.3173 26.0427 85.7933 26.5373 86.4093 26.892C87.0253 27.228 87.7346 27.396 88.5373 27.396C89.2279 27.396 89.8626 27.2747 90.4413 27.032C91.0386 26.7893 91.5426 26.4347 91.9533 25.968L93.9133 27.956C93.2599 28.7213 92.4666 29.3 91.5333 29.692C90.5999 30.084 89.6106 30.28 88.5653 30.28ZM106.49 30V22.244C106.49 21.348 106.201 20.6107 105.622 20.032C105.062 19.4533 104.334 19.164 103.438 19.164C102.841 19.164 102.309 19.2947 101.842 19.556C101.376 19.8173 101.012 20.1813 100.75 20.648C100.489 21.1147 100.358 21.6467 100.358 22.244L99.1543 21.572C99.1543 20.5453 99.3783 19.64 99.8263 18.856C100.274 18.0533 100.89 17.428 101.674 16.98C102.477 16.5133 103.373 16.28 104.362 16.28C105.37 16.28 106.266 16.5413 107.05 17.064C107.834 17.568 108.45 18.2307 108.898 19.052C109.346 19.8547 109.57 20.6947 109.57 21.572V30H106.49ZM97.2783 30V16.56H100.358V30H97.2783ZM114.58 30V10.96H117.66V30H114.58ZM111.36 19.36V16.56H120.88V19.36H111.36Z" fill="#1E1E1E"/>
<path d="M124.288 14L127.744 5.6H128.704L132.136 14H130.648L127.96 7.196H128.464L125.752 14H124.288ZM125.992 12.38V11.18H130.444V12.38H125.992ZM133.244 14V5.6H134.624V14H133.244Z" fill="#1E1E1E"/>
<rect width="40" height="40" rx="10" fill="#1E1E1E"/>
<path fill-rule="evenodd" clip-rule="evenodd" d="M15.7495 8C19.4885 8 22.5306 11.124 22.5306 14.964C22.5306 15.1491 22.5235 15.3326 22.5096 15.5141L23.3011 12.917H26.3359L23.0214 23.7951H28.1033V15.8018H31V23.2933V27.2763V31.9999H28.1033V26.7693H19.0796L21.6132 18.4554C21.4049 18.8224 21.1649 19.1683 20.8971 19.489L20.9007 19.492L14.0405 27.9178H10.2648L15.1647 21.8996C12.358 21.6523 10.0348 19.6425 9.25199 16.9551C9.25199 16.9551 9 16.2043 9 14.9636C9 13.7229 9.25199 12.9721 9.25199 12.9721C10.0885 10.0999 12.6841 8 15.7495 8ZM11.8646 14.964C11.8646 12.7642 13.6073 10.9746 15.7495 10.9746C17.8916 10.9746 19.6343 12.7642 19.6343 14.964C19.6343 17.1637 17.8916 18.953 15.7495 18.953C13.6073 18.953 11.8646 17.1634 11.8646 14.964Z" fill="white"/>
</svg>
