<svg width="84" height="32" viewBox="0 0 84 32" fill="none" xmlns="http://www.w3.org/2000/svg">
<rect width="32" height="32" rx="8" fill="#3B0D69"/>
<path d="M12.6006 6.40002C15.5916 6.40005 18.0251 8.89858 18.0254 11.9703C18.0254 12.1194 18.0181 12.2675 18.0068 12.4137L18.6416 10.3326H21.0693L18.418 19.0348H22.4834V12.6403H24.8008V25.5992H22.4834V21.4147H15.2646L17.291 14.7614C17.1242 15.0555 16.9333 15.3334 16.7188 15.5905L16.7217 15.5934L11.2334 22.3336H8.21289L12.1328 17.5192C9.88754 17.3213 8.0287 15.7139 7.40234 13.5641C7.40234 13.5641 7.20117 12.9629 7.20117 11.9703C7.2012 10.9908 7.39723 10.393 7.40234 10.3776C8.07157 8.07983 10.1483 6.40002 12.6006 6.40002ZM12.6006 8.77893C10.887 8.77893 9.49244 10.2107 9.49219 11.9703C9.49219 13.7298 10.8869 15.1617 12.6006 15.1617C14.3143 15.1617 15.708 13.7301 15.708 11.9703C15.7078 10.2108 14.3141 8.77896 12.6006 8.77893Z" fill="#F8F1FD"/>
<path d="M41.76 21V11.176H38.448V9.8H46.752V11.176H43.456V21H41.76ZM49.6975 21.192C49.0255 21.192 48.4708 21.08 48.0335 20.856C47.5962 20.632 47.2708 20.3387 47.0575 19.976C46.8442 19.6027 46.7375 19.1973 46.7375 18.76C46.7375 17.992 47.0362 17.384 47.6335 16.936C48.2308 16.488 49.0842 16.264 50.1935 16.264H52.2735V16.12C52.2735 15.5013 52.1028 15.0373 51.7615 14.728C51.4308 14.4187 50.9988 14.264 50.4655 14.264C49.9962 14.264 49.5855 14.3813 49.2335 14.616C48.8922 14.84 48.6842 15.176 48.6095 15.624H46.9135C46.9668 15.048 47.1588 14.5573 47.4895 14.152C47.8308 13.736 48.2575 13.4213 48.7695 13.208C49.2922 12.984 49.8628 12.872 50.4815 12.872C51.5908 12.872 52.4495 13.1653 53.0575 13.752C53.6655 14.328 53.9695 15.1173 53.9695 16.12V21H52.4975L52.3535 19.64C52.1295 20.0773 51.8042 20.4453 51.3775 20.744C50.9508 21.0427 50.3908 21.192 49.6975 21.192ZM50.0335 19.816C50.4922 19.816 50.8762 19.7093 51.1855 19.496C51.5055 19.272 51.7508 18.9787 51.9215 18.616C52.1028 18.2533 52.2148 17.8533 52.2575 17.416H50.3695C49.6975 17.416 49.2175 17.5333 48.9295 17.768C48.6522 18.0027 48.5135 18.296 48.5135 18.648C48.5135 19.0107 48.6468 19.2987 48.9135 19.512C49.1908 19.7147 49.5642 19.816 50.0335 19.816ZM55.947 21V9.48H57.643V21H55.947ZM63.5028 21.192C62.7241 21.192 62.0308 21.0213 61.4228 20.68C60.8254 20.328 60.3561 19.8427 60.0148 19.224C59.6734 18.6053 59.5028 17.8853 59.5028 17.064C59.5028 16.232 59.6681 15.5013 59.9988 14.872C60.3401 14.2427 60.8094 13.752 61.4068 13.4C62.0148 13.048 62.7188 12.872 63.5188 12.872C64.2974 12.872 64.9748 13.048 65.5508 13.4C66.1268 13.7413 66.5748 14.2 66.8948 14.776C67.2148 15.352 67.3748 15.9867 67.3748 16.68C67.3748 16.7867 67.3694 16.904 67.3588 17.032C67.3588 17.1493 67.3534 17.2827 67.3428 17.432H61.1668C61.2201 18.2 61.4708 18.7867 61.9188 19.192C62.3774 19.5867 62.9054 19.784 63.5028 19.784C63.9828 19.784 64.3828 19.6773 64.7028 19.464C65.0334 19.24 65.2788 18.9413 65.4388 18.568H67.1348C66.9214 19.3147 66.4948 19.9387 65.8548 20.44C65.2254 20.9413 64.4414 21.192 63.5028 21.192ZM63.5028 14.264C62.9374 14.264 62.4361 14.4347 61.9988 14.776C61.5614 15.1067 61.2948 15.608 61.1988 16.28H65.6788C65.6468 15.6613 65.4281 15.1707 65.0228 14.808C64.6174 14.4453 64.1108 14.264 63.5028 14.264ZM69.1345 21V13.064H70.6385L70.7665 14.456C71.0118 13.9653 71.3692 13.5813 71.8385 13.304C72.3185 13.016 72.8678 12.872 73.4865 12.872C74.4465 12.872 75.1985 13.1707 75.7425 13.768C76.2972 14.3653 76.5745 15.256 76.5745 16.44V21H74.8945V16.616C74.8945 15.08 74.2652 14.312 73.0065 14.312C72.3772 14.312 71.8545 14.536 71.4385 14.984C71.0332 15.432 70.8305 16.072 70.8305 16.904V21H69.1345ZM81.9 21C81.1213 21 80.5027 20.8133 80.044 20.44C79.5853 20.056 79.356 19.3787 79.356 18.408V14.488H77.996V13.064H79.356L79.564 11.048H81.052V13.064H83.292V14.488H81.052V18.408C81.052 18.8453 81.1427 19.1493 81.324 19.32C81.516 19.48 81.8413 19.56 82.3 19.56H83.212V21H81.9Z" fill="#2C1D3B"/>
</svg>
